<svg width="42" height="42" viewBox="0 0 24 24" fill="none" xmlns="http://www.w3.org/2000/svg">
  <defs>
    <linearGradient id="dockCall" x1="0%" y1="0%" x2="100%" y2="100%">
      <stop offset="0%" stop-color="#5EE9A0"/>
      <stop offset="100%" stop-color="#22C55E"/>
    </linearGradient>
  </defs>
  <path d="M6.2 10.4c1.4 2.7 3.5 4.9 6.2 6.2l2-2c.3-.3.8-.4 1.2-.2 1 .4 2.1.6 3.2.6.7 0 1.2.5 1.2 1.2V20c0 .7-.5 1.2-1.2 1.2C10.3 21.2 2.8 13.7 2.8 4.5 2.8 3.8 3.3 3.3 4 3.3h3.2c.7 0 1.2.5 1.2 1.2 0 1.1.2 2.2.6 3.2.2.4.1.9-.2 1.2l-2.6 2.5z" fill="url(#dockCall)"/>
</svg>
